name C:\Users\u0101727\Documents\MyRepositories\paper-ad\predictivesimulations_2d/Results/PredSim_2D/IK_c19.mot
datacolumns 11
datarows 25
range 1.27596828 1.50621820
endheader
time	pelvis_tilt	pelvis_tx	pelvis_ty	hip_flexion_l	hip_flexion_r	knee_angle_l	knee_angle_r	ankle_angle_l	ankle_angle_r	lumbar_extension	
          1.27596828	        -15.12936054	          1.69371911	          0.90061142	         33.21690066	         10.39643514	        -37.56601069	         -7.29509610	         15.70264687	         11.30124168	          9.45487044	
          1.28556203	        -15.12867629	          1.70570669	          0.89975313	         34.18528599	          9.62077841	        -36.09305184	         -7.34291555	         15.98856563	         11.31164740	          9.41499305	
          1.29515577	        -15.12907199	          1.71774973	          0.89883684	         35.09255887	          8.86275737	        -34.50341970	         -7.42642897	         16.19355681	         11.30984051	          9.37836374	
          1.30474952	        -15.13093753	          1.72985472	          0.89786138	         35.93525251	          8.12131678	        -32.80487922	         -7.54456827	         16.32674029	         11.29941997	          9.34529253	
          1.31434327	        -15.13459410	          1.74202980	          0.89682561	         36.70877429	          7.39610524	        -31.00888448	         -7.69762286	         16.39690115	         11.28117443	          9.31616681	
          1.32393701	        -15.14011079	          1.75428700	          0.89573220	         37.40642985	          6.68801411	        -29.14161179	         -7.88925701	         16.41217650	         11.25348942	          9.29157788	
          1.33353076	        -15.14751466	          1.76664456	          0.89459357	         38.01528482	          5.99907452	        -27.23727100	         -8.12570982	         16.37985238	         11.21033113	          9.27282931	
          1.34312451	        -15.15682623	          1.77912402	          0.89343147	         38.51953204	          5.33245851	        -25.32808242	         -8.41413408	         16.30631979	         11.13926501	          9.26164413	
          1.35271825	        -15.16772624	          1.79174417	          0.89226840	         38.90973110	          4.69258773	        -23.44190838	         -8.76302510	         16.19697036	         11.02399773	          9.25920899	
          1.36231200	        -15.17941911	          1.80451960	          0.89112233	         39.18574685	          4.08473261	        -21.60061791	         -9.18224141	         16.05593733	         10.84799966	          9.26592932	
          1.37190575	        -15.19069351	          1.81746316	          0.89000753	         39.35446407	          3.51417256	        -19.82585823	         -9.68208907	         15.88582824	         10.59700076	          9.28173474	
          1.38149949	        -15.20032934	          1.83058872	          0.88893617	         39.42310366	          2.98578770	        -18.13244519	        -10.27223959	         15.68784735	         10.25815330	          9.30671585	
          1.39109324	        -15.20718337	          1.84391074	          0.88791741	         39.39848468	          2.50401421	        -16.53214796	        -10.96126455	         15.46189387	          9.81930750	          9.34111162	
          1.40068699	        -15.21000130	          1.85744340	          0.88695652	         39.28820521	          2.07346716	        -15.04201284	        -11.75816049	         15.20668653	          9.26962020	          9.38506129	
          1.41028073	        -15.20752039	          1.87120111	          0.88605456	         39.09730838	          1.69966704	        -13.67658813	        -12.67321834	         14.92020187	          8.59812254	          9.43885722	
          1.41987448	        -15.19833608	          1.88519746	          0.88520723	         38.83057463	          1.38852450	        -12.45576002	        -13.71736975	         14.59955392	          7.79438505	          9.50275073	
          1.42946822	        -15.18089094	          1.89944420	          0.88440339	         38.49335800	          1.14569123	        -11.40830756	        -14.90081281	         14.24093804	          6.85090455	          9.57689214	
          1.43906197	        -15.15374447	          1.91395242	          0.88362392	         38.08598616	          0.97595057	        -10.56508021	        -16.23282685	         13.83998831	          5.76770035	          9.66187276	
          1.44865572	        -15.11570671	          1.92873039	          0.88283731	         37.60141430	          0.88222480	         -9.95973482	        -17.72638490	         13.39170936	          4.56712482	          9.75875556	
          1.45824946	        -15.06662186	          1.94377184	          0.88199970	         37.02165162	          0.86723906	         -9.64042936	        -19.38742979	         12.89131487	          3.26271464	          9.86868336	
          1.46784321	        -15.00904670	          1.95905972	          0.88113449	         36.27862187	          0.93822402	         -9.72773251	        -21.21284767	         12.33675183	          1.83450964	          9.99562915	
          1.47743696	        -14.95119409	          1.97440815	          0.88036862	         35.41546708	          1.09981572	        -10.04192544	        -23.18404599	         11.76736704	          0.36788955	         10.13016523	
          1.48703070	        -14.90404042	          1.98947642	          0.87993162	         34.55737934	          1.37886778	        -10.32203425	        -25.20861960	         11.21710603	         -0.91569319	         10.24905065	
          1.49662445	        -14.87614573	          2.00401742	          0.88008531	         33.74162296	          1.80365097	        -10.58022695	        -27.14638015	         10.68583665	         -1.91822960	         10.33836730	
          1.50621820	        -14.86984891	          2.01796817	          0.88098554	         32.97066229	          2.37008088	        -10.81139720	        -28.93468062	         10.18821981	         -2.66903056	         10.39697071	
